<svg width="98" height="28" viewBox="0 0 98 28" fill="none" xmlns="http://www.w3.org/2000/svg">
<path d="M17.1103 0H2.77278C2.16017 0 1.66357 0.501413 1.66357 1.12002V26.88C1.66357 27.4985 2.16017 28 2.77284 28H20.8904C21.503 28 21.9997 27.4986 21.9997 26.88V4.93682L17.1103 0Z" fill="#E1E6E9"/>
<path d="M22 15.4302H0V23.1015H22V15.4302Z" fill="#27A2DB"/>
<path d="M7.95482 17.5634C8.40292 17.973 8.62647 18.5426 8.62647 19.2724C8.62647 20.002 8.40944 20.5796 7.97484 21.0047C7.54024 21.4301 6.87511 21.6426 5.97998 21.6426H4.43701V16.9489H6.03304C6.86647 16.9489 7.50726 17.1538 7.95482 17.5634ZM7.8352 19.2924C7.8352 18.218 7.2258 17.6809 6.00651 17.6809H5.22176V20.8972H6.09309C6.65595 20.8972 7.08729 20.762 7.38657 20.4909C7.6858 20.2203 7.8352 19.8208 7.8352 19.2924Z" fill="#EBF0F3"/>
<path d="M13.5273 20.9946C13.0575 21.458 12.4768 21.6897 11.7852 21.6897C11.0935 21.6897 10.5128 21.458 10.0431 20.9946C9.57275 20.5315 9.33789 19.9538 9.33789 19.2624C9.33789 18.5706 9.57275 17.9932 10.0431 17.5298C10.5128 17.0664 11.0935 16.8351 11.7852 16.8351C12.4768 16.8351 13.0575 17.0664 13.5273 17.5298C13.9976 17.9932 14.2324 18.5706 14.2324 19.2624C14.2324 19.9538 13.9976 20.5314 13.5273 20.9946ZM12.9525 18.0569C12.6354 17.7258 12.2462 17.5602 11.7852 17.5602C11.324 17.5602 10.9349 17.7258 10.6178 18.0569C10.3012 18.3883 10.1427 18.7899 10.1427 19.2624C10.1427 19.7348 10.3012 20.1364 10.6178 20.4675C10.935 20.7989 11.3241 20.9645 11.7852 20.9645C12.2463 20.9645 12.6354 20.7989 12.9525 20.4675C13.2691 20.1364 13.4277 19.7347 13.4277 19.2624C13.4277 18.79 13.2692 18.3883 12.9525 18.0569Z" fill="#EBF0F3"/>
<path d="M17.3451 20.9241C17.6152 20.9241 17.8479 20.8785 18.0433 20.7867C18.2381 20.6949 18.4422 20.5482 18.6554 20.3468L19.1603 20.8706C18.6683 21.4211 18.0709 21.6965 17.3684 21.6965C16.6654 21.6965 16.0825 21.4681 15.6192 21.0116C15.156 20.555 14.9243 19.9774 14.9243 19.279C14.9243 18.5807 15.1603 17.999 15.6327 17.5331C16.1046 17.0678 16.7011 16.8351 17.4214 16.8351C18.1417 16.8351 18.7435 17.1036 19.2268 17.6408L18.7284 18.1914C18.5065 17.9766 18.297 17.8266 18.0995 17.7414C17.9025 17.6564 17.6709 17.6138 17.4046 17.6138C16.9348 17.6138 16.5403 17.7673 16.221 18.0739C15.9017 18.3804 15.7421 18.7722 15.7421 19.249C15.7421 19.7258 15.9006 20.1241 16.2177 20.4441C16.535 20.7643 16.9105 20.9241 17.3451 20.9241Z" fill="#EBF0F3"/>
<path d="M0 23.1013L1.66389 24.6635V23.1013H0Z" fill="#2D93BA"/>
<path d="M17.1109 4.93682H22.0002L17.1108 0L17.1109 4.93682Z" fill="#EBF0F3"/>
<path d="M18.0513 4.93683L21.9999 7.25005V4.93683H18.0513Z" fill="#D5D6DB"/>
<path d="M41.7145 0C40.8502 0 40.1431 0.7875 40.1431 1.75V26.25C40.1431 27.2125 40.8502 28 41.7145 28H57.4288C58.2931 28 59.0002 27.2125 59.0002 26.25V7L52.7145 0H41.7145Z" fill="#E2E5E7"/>
<path d="M54.2858 7H59.0001L52.7144 0V5.25C52.7144 6.2125 53.4215 7 54.2858 7Z" fill="#B0B7BD"/>
<path d="M58.9999 12.25L54.2856 7H58.9999V12.25Z" fill="#CAD1D8"/>
<path d="M55.8571 22.75C55.8571 23.2312 55.5036 23.625 55.0714 23.625H37.7857C37.3536 23.625 37 23.2312 37 22.75V14C37 13.5187 37.3536 13.125 37.7857 13.125H55.0714C55.5036 13.125 55.8571 13.5187 55.8571 14V22.75Z" fill="#F15642"/>
<path d="M40.4248 16.5786C40.4248 16.3476 40.5882 16.0956 40.8514 16.0956H42.3027C43.1198 16.0956 43.8552 16.7046 43.8552 17.8719C43.8552 18.9779 43.1198 19.5939 42.3027 19.5939H41.2537V20.5179C41.2537 20.8259 41.0777 21 40.8514 21C40.644 21 40.4248 20.8259 40.4248 20.5179V16.5786ZM41.2537 16.9768V18.7198H42.3027C42.7238 18.7198 43.0569 18.3059 43.0569 17.8719C43.0569 17.3828 42.7238 16.9768 42.3027 16.9768H41.2537Z" fill="white"/>
<path d="M45.0861 21C44.8786 21 44.6523 20.874 44.6523 20.5669V16.5926C44.6523 16.3415 44.8786 16.1586 45.0861 16.1586H46.5247C49.3957 16.1586 49.3328 21 46.5813 21H45.0861ZM45.4821 17.0126V20.1469H46.5247C48.2211 20.1469 48.2965 17.0126 46.5247 17.0126H45.4821Z" fill="white"/>
<path d="M50.3507 17.0687V18.1808H51.9527C52.179 18.1808 52.4053 18.4328 52.4053 18.6769C52.4053 18.9079 52.179 19.0969 51.9527 19.0969H50.3507V20.566C50.3507 20.811 50.1943 20.9992 49.9743 20.9992C49.6977 20.9992 49.5288 20.811 49.5288 20.566V16.5918C49.5288 16.3407 49.6985 16.1578 49.9743 16.1578H52.1798C52.4564 16.1578 52.6198 16.3407 52.6198 16.5918C52.6198 16.8158 52.4564 17.0678 52.1798 17.0678H50.3507V17.0687Z" fill="white"/>
<path d="M55.0716 23.625H40.1431V24.5H55.0716C55.5038 24.5 55.8574 24.1063 55.8574 23.625V22.75C55.8574 23.2313 55.5038 23.625 55.0716 23.625Z" fill="#CAD1D8"/>
<path d="M76.7691 16.5927C83.0768 17.8217 89.3845 17.7804 95.6921 16.5927V6.74078C95.6921 6.62853 95.6598 6.5194 95.5999 6.42967L91.446 0.207449C91.3589 0.0769066 91.2221 0 91.0768 0H78.1537C77.7865 0 77.4343 0.163893 77.1746 0.455591C76.915 0.747413 76.7691 1.14302 76.7691 1.55556V13.4816C76.7691 14.2516 76.6084 14.9043 76.6084 15.4246C76.6084 16.1439 76.7691 16.5927 76.7691 16.5927Z" fill="#D8DFE3"/>
<path d="M74 15.2484V26.4444C74 26.857 74.1459 27.2527 74.4055 27.5444C74.6652 27.8361 75.0174 28 75.3846 28H96.6154C96.9826 28 97.3347 27.8361 97.5945 27.5444C97.8541 27.2527 98 26.857 98 26.4444C98 24.4575 98 20.1351 98 18.1482C98 17.7357 97.8541 17.34 97.5945 17.0483C97.3347 16.7566 96.9826 16.5927 96.6154 16.5927H75.8462C75.2573 16.5927 74 15.2484 74 15.2484Z" fill="#1FB35B"/>
<path d="M75.3846 16.5927C74.9632 16.5927 74.6556 16.4007 74.4292 16.1642C74.2162 15.9417 74 15.5496 74 15.0371C74 14.7082 74.1459 14.2289 74.4055 13.9372C74.6652 13.6455 75.0174 13.4816 75.3846 13.4816H76.7692V16.5927C76.7692 16.5927 76.8879 16.5927 75.3846 16.5927Z" fill="#198043"/>
<path d="M85.5386 14.5186V9.8519H79.5386V14C79.5386 14.2865 79.7452 14.5186 80.0001 14.5186H85.5386Z" fill="#1FB35B"/>
<path d="M85.5386 4.14825H80.0001C79.7452 4.14825 79.5386 4.38034 79.5386 4.66669V8.81492H85.5386V4.14825Z" fill="#1FB35B"/>
<path d="M92.4615 9.8519H86.4614V14.5186H91.9999C92.2548 14.5186 92.4615 14.2865 92.4615 14V9.8519Z" fill="#1FB35B"/>
<path d="M91.0768 4.14825H86.4614V8.81492H92.4615V6.74081C92.4615 6.45458 92.2546 6.22225 91.9999 6.22225C91.7451 6.22225 91.5383 4.95291 91.5383 4.66669C91.5383 4.38059 91.3315 4.14825 91.0768 4.14825Z" fill="#1FB35B"/>
<path d="M82.0195 19.7038V24.8889C82.0195 25.1754 82.2261 25.4075 82.4811 25.4075H85.3656C85.6204 25.4075 85.8272 25.1751 85.8272 24.8889C85.8272 24.6028 85.6204 24.3705 85.3656 24.3705H82.9426V19.7038C82.9426 19.4176 82.7358 19.1852 82.4811 19.1852C82.2263 19.1852 82.0195 19.4176 82.0195 19.7038Z" fill="#D8DFE3"/>
<path d="M91.2512 25.2305L95.2896 20.0452C95.4574 19.8299 95.4379 19.502 95.2462 19.3136C95.0546 19.1252 94.7627 19.147 94.595 19.3624L90.5565 24.5476C90.3887 24.7629 90.4082 25.0908 90.5999 25.2792C90.7916 25.4676 91.0835 25.4459 91.2512 25.2305Z" fill="#D8DFE3"/>
<path d="M77.405 25.2305L81.4434 20.0453C81.6112 19.83 81.5917 19.5021 81.4 19.3137C81.2084 19.1252 80.9165 19.147 80.7488 19.3624L76.7103 24.5477C76.5426 24.7629 76.5621 25.0909 76.7537 25.2793C76.9454 25.4677 77.2373 25.4459 77.405 25.2305Z" fill="#D8DFE3"/>
<path d="M95.2896 24.5476L91.2512 19.3624C91.0835 19.147 90.7916 19.1252 90.5999 19.3136C90.4082 19.502 90.3887 19.8299 90.5565 20.0452L94.595 25.2305C94.7627 25.4459 95.0546 25.4676 95.2462 25.2792C95.4379 25.0908 95.4574 24.7629 95.2896 24.5476Z" fill="#D8DFE3"/>
<path d="M81.4434 24.5477L77.405 19.3624C77.2373 19.147 76.9454 19.1252 76.7537 19.3137C76.5621 19.5021 76.5426 19.83 76.7103 20.0453L80.7488 25.2305C80.9165 25.4459 81.2084 25.4677 81.4 25.2793C81.5917 25.0909 81.6112 24.7629 81.4434 24.5477Z" fill="#D8DFE3"/>
<path d="M86.0577 23.5959L86.0576 23.5958V23.8529C86.0576 24.2652 86.2034 24.6607 86.4629 24.9521C86.7225 25.2437 87.0744 25.4075 87.4413 25.4075H88.4816C88.8486 25.4075 89.2006 25.2437 89.46 24.9521C89.7195 24.6607 89.8653 24.2652 89.8653 23.8529C89.8653 23.7832 89.8653 23.714 89.8653 23.6466C89.8653 23.0105 89.5206 22.4386 88.995 22.2023L87.3167 21.4481C87.1138 21.3569 86.9807 21.1362 86.9807 20.8906V20.7408C86.9807 20.6033 87.0293 20.4714 87.1159 20.3742C87.2024 20.2769 87.3198 20.2222 87.4422 20.2222H88.4807C88.6031 20.2222 88.7205 20.2769 88.807 20.3742C88.8936 20.4714 88.9423 20.6033 88.9423 20.7408V20.9969C88.9423 21.1433 88.9999 21.2757 89.0577 21.3429C89.1479 21.4577 89.2772 21.5186 89.4037 21.5186C89.6285 21.5186 89.8653 21.3237 89.8653 20.9969V20.7408C89.8653 20.3283 89.7194 19.9325 89.4598 19.6408C89.2001 19.3491 88.8479 19.1852 88.4807 19.1852H87.4422C87.075 19.1852 86.7228 19.3491 86.4631 19.6408C86.2035 19.9325 86.0576 20.3283 86.0576 20.7408V20.8906C86.0576 21.5601 86.4205 22.1623 86.9739 22.411L88.6522 23.1652C88.8274 23.2439 88.9423 23.4346 88.9423 23.6466V23.8529C88.9423 23.9902 88.8937 24.1218 88.8073 24.2189C88.7209 24.316 88.6038 24.3705 88.4816 24.3705H87.4413C87.3192 24.3705 87.202 24.316 87.1156 24.2189C87.0293 24.1218 86.9808 23.9902 86.9808 23.853C86.9807 23.8529 86.9807 23.8529 86.9807 23.5958C86.9807 23.2538 86.7326 23.0739 86.5273 23.0739C86.3325 23.0739 86.0576 23.2435 86.0576 23.5927C86.0576 23.5959 86.0577 23.5959 86.0577 23.5959Z" fill="#D8DFE3"/>
<path d="M91.0767 0V5.18523C91.0767 5.59776 91.2225 5.99349 91.4822 6.28519C91.7418 6.57689 92.094 6.74078 92.4613 6.74078H95.692C95.692 6.62853 95.6596 6.5194 95.5997 6.42967L91.4459 0.207449C91.3587 0.0769066 91.2219 0 91.0767 0Z" fill="#AFBDC7"/>
</svg>
